<svg xmlns="http://www.w3.org/2000/svg" width="128" height="128" id="youtube"><path fill="#231f20" d="M63.109 50.721c1.099 0 1.625-.87 1.625-2.608v-7.909c0-1.74-.526-2.605-1.625-2.605-1.1 0-1.627.865-1.627 2.605v7.909c0 1.738.527 2.608 1.627 2.608z"></path><path fill="#231f20" d="M64 7.989c-30.884 0-56.01 25.126-56.01 56.01 0 30.885 25.126 56.012 56.01 56.012 30.885 0 56.011-25.127 56.011-56.012C120.01 33.115 94.884 7.989 64 7.989zm29.771 69.494c0 4.301 0 9.176-1.028 13.632-.866 3.775-3.982 6.596-7.755 7.02-6.493.725-13.073.784-19.806.784H62.58c-6.733 0-13.313-.06-19.807-.784-3.773-.424-6.89-3.245-7.753-7.019-1.022-4.444-1.022-9.115-1.022-13.633 0-4.287 0-9.146 1.032-13.634.868-3.776 3.985-6.597 7.755-7.018 6.5-.728 12.972-.786 20.153-.786h1.909l.001 1v-1c7.179 0 13.65.059 20.149.786 3.773.421 6.89 3.241 7.756 7.019 1.017 4.428 1.017 9.074 1.017 13.567v.066zM63.109 34.531c1.707 0 3.03.644 3.975 1.928.714.951 1.059 2.419 1.059 4.427v6.585c0 1.999-.345 3.479-1.059 4.423-.944 1.28-2.268 1.924-3.975 1.924-1.695 0-3.024-.644-3.965-1.924-.727-.944-1.067-2.424-1.067-4.423v-6.585c0-2.008.341-3.476 1.067-4.427.94-1.285 2.27-1.928 3.965-1.928zm-15.694.829c-.795-2.339-1.626-4.691-2.421-7.027h3.976l2.681 9.905 2.576-9.905h3.824-.005L53.501 43.34v10.216h-3.778V43.34c-.341-1.811-1.098-4.463-2.308-7.98zm26.966 14.563c.073.528.339.798.798.798.68 0 1.396-.528 2.152-1.595V34.76h3.406v18.796h-3.406v-2.052c-1.357 1.557-2.65 2.312-3.892 2.312-1.098 0-1.854-.446-2.192-1.399-.189-.567-.304-1.469-.304-2.794V34.76h3.396v13.837c0 .8 0 1.215.042 1.326z"></path><path fill="#231f20" d="M47.868 89.549V68.1h4.039v-3.517H40.154V68.1h3.965v21.449zM82.595 70.721c-1.719 0-3.064.631-4.035 1.907-.719.939-1.041 2.394-1.041 4.384v6.516c0 1.973.365 3.443 1.082 4.371.973 1.271 2.314 1.908 4.082 1.908 1.758 0 3.141-.668 4.074-2.018a4.815 4.815 0 0 0 .785-2.02c.032-.34.074-1.088.074-2.172v-.491h-3.441c0 1.353-.04 2.097-.072 2.28-.193.902-.678 1.354-1.508 1.354-1.154 0-1.719-.857-1.719-2.582v-3.295h6.74v-3.852c0-1.99-.339-3.444-1.045-4.384-.943-1.275-2.284-1.906-3.976-1.906zm1.651 7.335h-3.369v-1.72c0-1.72.564-2.582 1.691-2.582 1.113 0 1.678.862 1.678 2.582v1.72zM62.091 89.549V70.947h-3.375v14.218c-.744 1.053-1.455 1.576-2.131 1.576-.451 0-.707-.266-.789-.787-.03-.109-.03-.523-.03-1.311V70.947h-3.369v14.71c0 1.314.112 2.199.298 2.766.335.943 1.084 1.385 2.172 1.385 1.238 0 2.512-.75 3.85-2.286v2.028h3.374zM65.009 64.583v24.966h3.369v-1.803c1.126 1.393 2.282 2.061 3.481 2.061 1.344 0 2.245-.707 2.694-2.092.225-.787.34-2.026.34-3.746v-7.41c0-1.759-.115-2.991-.34-3.74-.449-1.393-1.351-2.098-2.694-2.098-1.237 0-2.392.68-3.481 2.016v-8.153h-3.369zm5.049 9.171c.973 0 1.467.862 1.467 2.539v7.941c0 1.68-.494 2.506-1.467 2.506-.554 0-1.117-.266-1.68-.826v-11.34c.563-.554 1.126-.82 1.68-.82z"></path></svg>